HIERARCHY
ROOT Hips
{
   OFFSET 0.00000 0.00000 0.00000
   CHANNELS 6 Xposition Yposition Zposition Zrotation Xrotation Yrotation
   JOINT Spine
   {
      OFFSET 0.000000 11.890501 0.000000
      CHANNELS 3 Zrotation Xrotation Yrotation
      JOINT Spine1
      {
         OFFSET -0.000000 25.657401 0.127660
         CHANNELS 3 Zrotation Xrotation Yrotation
         JOINT HEad
         {
            OFFSET 0.000000 8.734161 0.011340
            CHANNELS 3 Zrotation Xrotation Yrotation
            End Site
            {
               OFFSET -0.290000 12.774200 2.513950
            }
         }
         JOINT LeftShoulder1
         {
            OFFSET 8.990000 -0.362250 -0.220000
            CHANNELS 3 Zrotation Xrotation Yrotation
            JOINT LeftArm
            {
               OFFSET 10.282700 -0.003380 0.322120
               CHANNELS 3 Zrotation Xrotation Yrotation
               JOINT LeftForeArm
               {
                  OFFSET 32.766900 0.099140 -1.424340
                  CHANNELS 3 Zrotation Xrotation Yrotation
                  JOINT LeftHand
                  {
                     OFFSET 27.564301 0.085360 1.022160
                     CHANNELS 3 Zrotation Xrotation Yrotation
                     End Site
                     {
                        OFFSET 16.744301 -0.600000 1.502910
                     }
                  }
               }
            }
         }
         JOINT RightShoulder
         {
            OFFSET -8.990000 -0.362250 -0.220000
            CHANNELS 3 Zrotation Xrotation Yrotation
            JOINT RightArm
            {
               OFFSET -10.282700 -0.003380 0.322120
               CHANNELS 3 Zrotation Xrotation Yrotation
               JOINT RightForeArm
               {
                  OFFSET -32.897098 0.099140 -1.424340
                  CHANNELS 3 Zrotation Xrotation Yrotation
                  JOINT RightHand
                  {
                     OFFSET -27.492101 0.085360 1.022160
                     CHANNELS 3 Zrotation Xrotation Yrotation
                     End Site
                     {
                        OFFSET -16.631201 -0.600000 1.502910
                     }
                  }
               }
            }
         }
      }
   }
   JOINT LeftUpLeg
   {
      OFFSET 8.945800 -8.667070 0.101650
      CHANNELS 3 Zrotation Xrotation Yrotation
      JOINT LeftLeg
      {
         OFFSET 0.000000 -44.422697 1.372700
         CHANNELS 3 Zrotation Xrotation Yrotation
         JOINT LeftFoot
         {
            OFFSET -0.253550 -42.092399 -1.460590
            CHANNELS 3 Zrotation Xrotation Yrotation
            JOINT LeftToes
            {
               OFFSET -0.040000 -4.415090 8.499099
               CHANNELS 3 Zrotation Xrotation Yrotation
               End Site
               {
                  OFFSET 0.080000 -0.047450 9.779790
               }
            }
         }
      }
   }
   JOINT RightUpLeg
   {
      OFFSET -8.945800 -8.667070 0.101650
      CHANNELS 3 Zrotation Xrotation Yrotation
      JOINT RightLeg
      {
         OFFSET 0.000000 -44.422697 1.372700
         CHANNELS 3 Zrotation Xrotation Yrotation
         JOINT RightFoot
         {
            OFFSET 0.253550 -42.092399 -1.460590
            CHANNELS 3 Zrotation Xrotation Yrotation
            JOINT RightToes
            {
               OFFSET 0.040000 -4.415090 8.499099
               CHANNELS 3 Zrotation Xrotation Yrotation
               End Site
               {
                  OFFSET -0.080000 -0.137450 9.779790
               }
            }
         }
      }
   }
}
MOTION
Frames: 14
Frame Time: 0.016670
24.324031 93.291548 -33.933012 4.795578 0.451662 106.040804 -8.258051 12.660610 3.822050 -0.073989 0.850560 1.555055 -12.426224 30.862609 5.263935 -4.421502 -17.728490 -2.110210 -168.289413 -83.786122 -138.109990 -41.463657 81.323729 -79.424138 19.223328 9.374418 -1.700059 13.369362 -25.665653 -6.442509 67.117988 33.765266 41.736363 5.661050 2.593641 93.979271 15.462963 13.988691 12.134680 16.913807 -8.380829 -31.471633 -16.778951 8.469651 64.492948 65.185843 8.772165 -5.778270 -78.583410 -9.266243 -40.314580 -30.168911 5.367690 15.404660 37.668674 -12.514245 -46.870059 -24.528990 5.971818 0.835486 11.356045 -15.739237 14.126429
24.287245 93.349045 -34.615256 4.814977 0.569804 105.928352 -9.211106 13.131997 4.060453 0.174075 0.775841 1.642549 -11.567651 32.765961 3.043161 -4.017096 -18.156584 -3.000439 -168.533866 -85.019108 -138.574416 -38.939557 80.309781 -81.216639 19.748959 9.234989 -1.528522 13.522275 -26.308938 -7.213957 67.272343 34.145926 41.264960 5.050742 2.071884 94.065502 16.208329 14.339296 12.663683 16.797146 -7.547921 -35.031924 -16.916550 5.729418 68.024497 68.061483 9.051858 -5.971727 -79.164481 -9.424832 -41.953126 -31.537487 7.229116 17.407987 38.223842 -16.685312 -47.815894 -22.588088 6.181099 0.601133 8.282141 -15.278341 15.531087
24.189005 93.345669 -35.361309 5.034327 0.753850 105.768983 -10.144889 13.602650 4.192599 0.427833 0.710308 1.736287 -10.804685 34.263388 1.258552 -3.595404 -18.574370 -3.872909 -168.364819 -86.017975 -138.890736 -36.435453 79.462148 -82.970222 19.618678 8.423849 -1.465407 13.712811 -26.866722 -7.762103 67.393695 34.465882 40.857502 4.506476 1.770709 94.297920 16.629127 14.264351 12.754139 16.504589 -6.810525 -38.150339 -17.661204 3.719029 71.240048 70.944772 9.232888 -5.855242 -79.765107 -9.969525 -43.595588 -32.566164 8.855830 19.311790 38.201870 -19.840339 -48.435866 -20.040298 6.353560 0.556881 4.968755 -14.825592 16.601700
24.064154 93.310746 -36.188878 5.144234 0.893843 105.701610 -10.967669 14.058492 4.202070 0.660405 0.681032 1.799808 -10.181743 35.312003 -0.097424 -3.282741 -18.944143 -4.651026 -167.926525 -86.832803 -138.850506 -34.050211 78.739281 -84.659416 20.075608 8.162289 -1.145936 13.990503 -27.343769 -8.285709 67.505703 34.530920 40.433743 4.004696 1.518132 94.692062 16.970046 14.303779 13.037387 16.443721 -6.413945 -40.915050 -18.222308 1.766411 74.040371 73.489086 9.434376 -6.104540 -80.284086 -10.735718 -45.360447 -33.251769 10.085034 20.856630 37.736208 -22.174750 -48.990806 -16.894323 6.275907 0.441474 1.565903 -14.457448 17.307228
23.926665 93.297633 -37.049524 5.285443 1.088684 105.718242 -11.597664 14.517260 4.200875 0.896601 0.616353 1.923917 -9.703194 35.933246 -1.044879 -3.143270 -19.339732 -5.382595 -167.357762 -87.394313 -138.324841 -31.846860 78.068871 -86.274537 20.306228 7.515315 -0.942072 14.362925 -27.713195 -8.634866 67.625218 34.462140 40.031742 3.522418 1.402315 95.226504 17.446805 14.203775 13.256301 16.179593 -5.963561 -43.271933 -18.852990 0.074458 76.482922 75.745432 9.501971 -6.010602 -81.010913 -11.886338 -47.207310 -33.632132 10.935342 21.969443 37.014349 -23.627916 -49.777889 -13.330619 6.495338 0.191076 -1.932893 -13.898871 17.718557
23.796048 93.286246 -37.931101 5.483488 1.226017 105.690163 -12.134902 14.947121 4.056883 1.021365 0.607228 1.964502 -9.350684 36.252066 -1.611360 -2.897956 -19.673684 -5.969949 -166.370035 -87.820359 -137.747212 -29.843439 77.592199 -87.771448 20.671834 7.251103 -0.757878 14.641144 -28.091762 -8.920626 67.747321 34.252917 39.713933 3.020132 1.307041 95.782967 17.726375 14.188969 13.449008 16.066765 -5.662142 -45.237897 -19.346432 -1.443981 78.581825 77.731248 9.581325 -6.057364 -81.728801 -13.128571 -48.933224 -33.813087 11.391576 22.696094 36.639734 -22.843504 -49.314970 -8.333739 6.565457 -0.161952 -5.891703 -13.945696 16.077589
23.698775 93.300532 -38.827960 5.612878 1.236542 105.640152 -12.702916 15.500083 3.741613 1.185085 0.385941 1.883984 -9.118208 36.286729 -1.828706 -2.505291 -20.058684 -6.583526 -165.018190 -88.002760 -137.260342 -28.105200 77.283939 -89.169335 20.687665 6.826530 -0.778803 14.907258 -28.564408 -9.081606 67.926013 33.868839 39.526035 2.442089 1.142665 96.214327 17.887091 14.093186 13.410270 16.008920 -5.541036 -46.783691 -20.108815 -2.565786 80.428742 79.620717 9.728372 -6.095014 -82.402961 -14.356332 -50.413121 -33.784431 11.337881 23.244604 35.865696 -22.024312 -49.074192 -3.328136 6.691096 -0.408683 -9.796209 -13.657379 14.727624
23.581040 93.356093 -39.707775 5.828729 1.391321 105.909316 -12.820034 15.801175 3.430943 1.032690 0.532852 1.843236 -9.074324 35.073274 -0.550920 -2.458684 -20.362051 -6.932219 -164.002363 -88.236653 -136.361489 -26.544238 76.953426 -90.324717 20.689857 6.671681 -0.757093 15.156755 -28.798137 -9.206123 68.015106 33.543824 39.274653 1.865937 1.192647 96.893685 17.524233 13.961741 13.126190 15.502916 -5.260061 -46.908561 -20.462717 -3.102224 80.921725 81.184837 9.790809 -5.987141 -83.209183 -15.652704 -51.720580 -33.605422 11.049796 23.960392 36.762417 -19.995357 -47.104570 -17.089326 7.087150 -0.176494 4.631222 -15.301231 12.530916
23.445904 93.447903 -40.574955 5.933609 1.486508 105.917813 -12.738829 15.976612 3.113501 0.822122 0.833402 1.826637 -9.096965 33.841695 0.806569 -2.361783 -20.695453 -7.177141 -163.043487 -88.353592 -135.541593 -25.245935 76.710285 -91.352783 20.447104 6.466662 -0.845562 15.365165 -28.838298 -9.249890 68.076803 33.268342 38.980501 1.246743 1.366073 97.600268 16.557403 13.650809 12.388473 14.805477 -4.951866 -45.738963 -20.534064 -2.967661 80.261642 82.527817 9.891552 -6.031776 -83.970735 -16.767425 -52.771554 -33.332904 10.533299 24.319085 37.079970 -18.612843 -45.454281 -30.710706 6.787535 0.502990 18.906264 -15.754052 10.739391
23.273720 93.565959 -41.388506 6.182589 1.652226 105.719662 -12.248264 15.746462 2.831525 0.600945 1.202812 1.873479 -9.134695 32.640815 2.196163 -2.368455 -21.006795 -7.217582 -162.289133 -88.404259 -134.794111 -24.304596 76.580689 -92.444561 20.215866 6.439215 -1.048918 15.792938 -28.804106 -9.251209 68.566637 33.025279 38.758349 0.890263 1.244619 98.395036 14.731666 13.119312 11.653584 14.304148 -4.624451 -44.551125 -21.063916 -2.712591 79.496435 83.803102 9.967656 -6.272511 -84.569941 -17.610087 -53.625331 -33.379872 9.812037 24.443628 38.920433 -15.434383 -44.543178 -21.273138 6.408054 1.101667 9.665362 -17.480349 8.731043
23.084499 93.703602 -42.123112 6.460764 1.841623 105.736519 -11.601179 15.547035 2.654204 0.154523 1.647057 2.047167 -9.215229 31.531411 3.595428 -2.599040 -21.187298 -7.085904 -161.861154 -88.501698 -133.999760 -23.440525 76.537775 -93.387988 19.745481 6.422106 -1.152502 15.975519 -28.815885 -9.249565 68.691486 32.632509 38.548881 0.344711 1.455949 99.187071 13.870562 12.766995 11.322573 13.902947 -4.371595 -43.331728 -21.565663 -2.552771 78.649143 84.726461 10.005856 -6.427599 -85.308516 -18.452711 -54.403942 -33.274479 8.753247 24.544392 41.451455 -11.567723 -42.761683 -28.554875 6.487540 1.376269 16.979271 -20.044831 6.332477
22.894785 93.834685 -42.777805 6.634855 1.698876 105.633670 -11.341687 15.517389 2.364158 0.013702 1.805487 2.136459 -9.342671 30.519474 4.976660 -2.708713 -21.541167 -7.081435 -161.285000 -88.270045 -133.633922 -22.492569 76.460027 -94.092051 19.280775 6.519955 -1.053396 16.146830 -28.896321 -9.097262 68.701533 32.274092 38.472499 -0.352773 1.915221 100.035558 13.769301 12.609322 11.262986 13.848635 -4.175830 -41.993079 -21.949725 -2.613804 77.799119 85.320128 10.071850 -6.347345 -86.242258 -19.315874 -55.021391 -33.056698 7.332429 24.299233 44.167582 -7.233386 -41.712812 -22.277374 5.974025 2.054006 10.528417 -22.279843 3.355895
22.731783 93.983820 -43.348231 6.681866 1.447506 105.469165 -11.149524 15.740656 2.145559 0.071458 1.824947 2.320325 -9.440343 29.597272 6.295761 -2.811513 -21.878178 -7.043996 -160.552161 -87.800880 -133.515076 -21.732345 76.562876 -94.944684 18.689759 6.604663 -0.996140 16.451132 -29.029069 -8.868402 68.915051 31.872477 38.463462 -1.205423 2.195895 100.426525 13.867467 12.501572 11.118508 14.000366 -4.255732 -40.865534 -22.328462 -2.385944 76.788477 86.016397 10.050704 -6.352719 -86.898325 -19.888543 -55.712784 -32.739241 5.692870 24.033453 46.066832 -2.214262 -40.286409 -21.581595 5.553550 2.447555 10.320120 -24.676539 0.323864
22.596194 94.160422 -43.843126 6.843898 1.345036 105.338640 -10.547355 15.759605 1.816074 -0.110906 2.007244 2.402568 -9.471209 28.699673 7.522038 -3.176554 -21.941356 -6.826366 -159.850168 -87.379785 -133.355892 -21.124906 76.914842 -95.943018 17.935612 6.766819 -0.817325 16.753655 -29.280908 -8.797939 69.283998 31.366691 38.567876 -1.922422 2.207119 100.970727 13.988687 12.419843 11.073263 14.138351 -4.312071 -39.853590 -22.731877 -2.012767 75.688905 86.664015 10.029860 -6.576241 -87.344630 -20.216329 -56.404382 -32.673518 3.886100 23.727828 47.111626 1.580735 -39.740353 -19.806708 5.167112 2.593606 9.216570 -25.009697 -1.412347
